#N canvas 783 102 450 526 10;
#X obj 63 14 import mrpeach;
#X obj 64 140 unpackOSC;
#X msg 48 39 status;
#X floatatom 208 235 5 0 0 0 - - -, f 5;
#X obj 57 240 print message;
#X msg 63 63 port 5001;
#X floatatom 304 234 5 0 0 0 - - -, f 5;
#X obj 160 176 routeOSC /testx;
#X obj 304 174 routeOSC /testy;
#X obj 51 214 spigot;
#X obj 76 179 tgl 15 0 empty empty empty 17 7 0 10 -262144 -1 -1 0
1;
#X obj 63 93 udpreceive 5001;
#X obj 208 272 s s, f 4;
#X obj 66 286 r s;
#X obj 109 392 *~;
#X obj 117 288 bng 15 250 50 0 empty empty empty 17 7 0 10 -262144
-1 -1;
#X obj 105 418 output~;
#X obj 42 369 osc~ 440;
#X obj 38 327 + 300;
#X floatatom 40 349 5 0 0 0 - - -, f 5;
#X obj 38 307 * 200;
#X obj 379 369 bng 15 250 50 0 empty empty empty 17 7 0 10 -262144
-1 -1;
#X floatatom 322 376 5 0 0 0 - - -, f 5;
#X obj 329 339 unpack f b, f 12;
#X msg 327 312 400 1;
#X msg 118 318 1 1000;
#X msg 181 328 0.8 500;
#X msg 188 365 0 1000 1000;
#X obj 117 350 vline~;
#X obj 214 410 delay;
#X obj 4 347 sig~;
#X obj 3 392 snapshot~;
#X msg 163 310 stop;
#X obj 323 400 t f f b;
#X floatatom 294 427 5 0 0 0 - - -, f 5;
#X floatatom 342 432 5 0 0 0 - - -, f 5;
#X obj 382 430 bng 15 250 50 0 empty empty empty 17 7 0 10 -262144
-1 -1;
#X connect 1 0 7 0;
#X connect 1 0 8 0;
#X connect 1 0 9 0;
#X connect 2 0 11 0;
#X connect 3 0 12 0;
#X connect 5 0 11 0;
#X connect 7 0 3 0;
#X connect 8 0 6 0;
#X connect 9 0 4 0;
#X connect 10 0 9 1;
#X connect 11 0 1 0;
#X connect 13 0 20 0;
#X connect 14 0 16 0;
#X connect 14 0 16 1;
#X connect 15 0 25 0;
#X connect 17 0 14 0;
#X connect 18 0 19 0;
#X connect 18 0 30 0;
#X connect 19 0 17 0;
#X connect 20 0 18 0;
#X connect 22 0 33 0;
#X connect 23 0 22 0;
#X connect 23 1 21 0;
#X connect 24 0 23 0;
#X connect 25 0 28 0;
#X connect 26 0 28 0;
#X connect 26 0 28 1;
#X connect 27 0 28 0;
#X connect 28 0 14 1;
#X connect 30 0 31 0;
#X connect 31 0 19 0;
#X connect 32 0 28 0;
#X connect 33 0 34 0;
#X connect 33 1 35 0;
#X connect 33 2 36 0;
