#N canvas 726 60 450 526 10;
#X obj 63 14 import mrpeach;
#X obj 63 126 unpackOSC;
#X msg 48 39 status;
#X msg 63 63 port 5001;
#X obj 63 93 udpreceive 5001;
#X obj 379 369 bng 15 250 50 0 empty empty empty 17 7 0 10 -262144
-1 -1;
#X floatatom 322 376 5 0 0 0 - - -, f 5;
#X obj 329 339 unpack f b, f 12;
#X msg 327 312 400 1;
#X obj 323 400 t f f b;
#X floatatom 294 427 5 0 0 0 - - -, f 5;
#X floatatom 342 432 5 0 0 0 - - -, f 5;
#X obj 382 430 bng 15 250 50 0 empty empty empty 17 7 0 10 -262144
-1 -1;
#X text 169 150 OSC msg: ID TID X Y rX rY type;
#X obj 63 151 routeOSC /note;
#X obj 92 190 print osc;
#X obj 66 223 unpack f f f f f f f;
#X obj 102 250 pack f f f f f;
#X obj 59 259 mod 5;
#X floatatom 59 281 5 0 0 0 - - -, f 5;
#X obj 118 359 spigot;
#X obj 137 384 spigot;
#X obj 155 404 spigot;
#X obj 174 425 spigot;
#X obj 100 340 spigot;
#N canvas 239 131 450 414 fmsynth 1;
#X obj 42 30 inlet, f 7;
#X obj 67 379 osc~;
#X floatatom 115 259 5 0 0 0 - - -, f 5;
#X text 154 319 frequence porteuse;
#X text 155 262 index de modulation;
#X floatatom 67 234 5 0 0 0 - - -, f 5;
#X obj 67 288 *~;
#X obj 67 257 osc~;
#X obj 67 342 +~;
#X floatatom 120 318 5 0 0 0 - - -, f 5;
#X msg 118 289 0;
#X obj 32 479 outlet~;
#X obj 42 56 unpack f f f f f;
#X obj 83 422 *~;
#X text 11 108 volume;
#X obj 60 163 mtof;
#X obj 104 96 max;
#X obj 59 139 +;
#X obj 167 98 select 1 2 3;
#X msg 115 233 10;
#X obj 46 450 *~;
#X obj 163 399 vline~;
#X msg 303 365 0 500;
#X msg 166 359 1 50;
#X msg 226 359 1 0;
#X obj 108 119 * 10;
#X floatatom 108 144 5 0 0 0 - - -, f 5;
#X obj 61 89 * 60;
#X obj 59 112 + 50;
#X obj 40 204 * 0.7;
#X text 217 378 sort of ASR;
#X connect 0 0 12 0;
#X connect 1 0 13 0;
#X connect 2 0 6 1;
#X connect 5 0 7 0;
#X connect 6 0 8 0;
#X connect 7 0 6 0;
#X connect 8 0 1 0;
#X connect 9 0 8 1;
#X connect 10 0 9 0;
#X connect 12 0 29 0;
#X connect 12 1 27 0;
#X connect 12 2 16 0;
#X connect 12 3 16 1;
#X connect 12 4 18 0;
#X connect 13 0 20 1;
#X connect 15 0 9 0;
#X connect 16 0 25 0;
#X connect 17 0 15 0;
#X connect 18 0 23 0;
#X connect 18 1 24 0;
#X connect 18 2 22 0;
#X connect 19 0 2 0;
#X connect 20 0 11 0;
#X connect 21 0 13 1;
#X connect 22 0 21 0;
#X connect 23 0 21 0;
#X connect 24 0 21 0;
#X connect 25 0 17 1;
#X connect 25 0 26 0;
#X connect 27 0 28 0;
#X connect 28 0 17 0;
#X connect 29 0 20 0;
#X restore 65 395 pd fmsynth;
#X obj 309 40 r~ m;
#X obj 309 77 dac~;
#X obj 151 332 == 1;
#X obj 173 360 == 2;
#X obj 189 383 == 3;
#X obj 208 404 == 4;
#X obj 135 310 == 0;
#X obj 47 499 s~ m;
#N canvas 171 258 444 346 kick 1;
#X obj 13 4 inlet;
#X obj 48 294 outlet~;
#X obj 175 124 vline~;
#X obj 81 221 *~, f 2;
#X obj 42 186 osc~ 330;
#X obj 8 125 +~ 0.5;
#X floatatom 64 126 5 0 0 0 - - -, f 5;
#X obj 39 156 *~;
#X text 63 4 kick;
#X obj 13 28 unpack f f f f f;
#X obj 99 105 mtof;
#X obj 50 259 *~;
#X obj 173 62 sel 1;
#X obj 99 57 * 30;
#X obj 99 81 + 60;
#X msg 173 92 1 0 0 \, 0.5 40 0 \, 0 100 0;
#X connect 0 0 9 0;
#X connect 2 0 3 0;
#X connect 2 0 3 1;
#X connect 3 0 11 1;
#X connect 4 0 3 0;
#X connect 5 0 7 0;
#X connect 6 0 7 1;
#X connect 7 0 4 0;
#X connect 9 0 13 0;
#X connect 9 1 11 0;
#X connect 9 4 12 0;
#X connect 10 0 4 1;
#X connect 11 0 1 0;
#X connect 12 0 15 0;
#X connect 13 0 14 0;
#X connect 14 0 10 0;
#X connect 15 0 2 0;
#X restore 63 367 pd kick;
#N canvas 442 102 450 400 snare 1;
#X obj 204 194 noise~;
#X obj 201 241 hip~ 100;
#X obj 272 202 vline~;
#X obj 207 389 *~;
#X obj 71 209 vline~;
#X msg 87 177 1 0 0 \, 0 50 0;
#X obj 75 331 *~, f 4;
#X obj 159 247 *~ -1;
#X obj 159 270 +~ 1;
#X msg 270 170 1 0 0 \, 0 200 0;
#X obj 96 264 *~;
#X floatatom 103 240 5 0 0 0 - - -, f 5;
#X obj 200 299 *~ 0.9;
#X obj 38 11 inlet;
#X obj 38 35 unpack f f f f f;
#X obj 198 69 sel 1;
#X text 88 11 snare;
#X obj 145 465 outlet~;
#X obj 92 287 osc~;
#X floatatom 65 75 5 0 0 0 - - -, f 5;
#X obj 155 420 *~;
#X connect 0 0 1 0;
#X connect 1 0 12 0;
#X connect 2 0 3 1;
#X connect 3 0 20 1;
#X connect 4 0 6 0;
#X connect 4 0 6 1;
#X connect 4 0 7 0;
#X connect 4 0 10 0;
#X connect 5 0 4 0;
#X connect 6 0 3 0;
#X connect 7 0 8 0;
#X connect 8 0 12 0;
#X connect 9 0 2 0;
#X connect 10 0 18 0;
#X connect 11 0 10 1;
#X connect 12 0 3 0;
#X connect 13 0 14 0;
#X connect 14 1 19 0;
#X connect 14 4 15 0;
#X connect 15 0 9 0;
#X connect 15 0 5 0;
#X connect 18 0 6 0;
#X connect 19 0 20 0;
#X connect 20 0 17 0;
#X restore 73 419 pd snare;
#N canvas 640 140 450 323 sawsynth 1;
#X obj 39 15 inlet, f 7;
#X obj 39 41 unpack f f f f f;
#X text 8 93 volume;
#X obj 57 148 mtof;
#X obj 101 81 max;
#X obj 56 124 +;
#X obj 164 83 select 1 2 3;
#X obj 105 104 * 10;
#X floatatom 105 129 5 0 0 0 - - -, f 5;
#X obj 58 74 * 60;
#X obj 37 189 * 0.7;
#X obj 47 325 outlet~;
#X obj 47 296 *~;
#X obj 102 185 phasor~ 400;
#X obj 56 97 + 30;
#X obj 182 229 vline~;
#X msg 322 195 0 500;
#X msg 245 189 1 0;
#X text 236 208 sort of ASR;
#X obj 103 249 *~;
#X msg 185 189 1 30;
#X connect 0 0 1 0;
#X connect 1 0 10 0;
#X connect 1 1 9 0;
#X connect 1 2 4 0;
#X connect 1 3 4 1;
#X connect 1 4 6 0;
#X connect 3 0 13 0;
#X connect 4 0 7 0;
#X connect 5 0 3 0;
#X connect 6 0 20 0;
#X connect 6 1 17 0;
#X connect 6 2 16 0;
#X connect 7 0 5 1;
#X connect 7 0 8 0;
#X connect 9 0 14 0;
#X connect 10 0 12 0;
#X connect 12 0 11 0;
#X connect 13 0 19 0;
#X connect 14 0 5 0;
#X connect 15 0 19 1;
#X connect 16 0 15 0;
#X connect 17 0 15 0;
#X connect 19 0 12 1;
#X connect 20 0 15 0;
#X restore 84 441 pd sawsynth;
#X connect 1 0 14 0;
#X connect 2 0 4 0;
#X connect 3 0 4 0;
#X connect 4 0 1 0;
#X connect 6 0 9 0;
#X connect 7 0 6 0;
#X connect 7 1 5 0;
#X connect 8 0 7 0;
#X connect 9 0 10 0;
#X connect 9 1 11 0;
#X connect 9 2 12 0;
#X connect 14 0 15 0;
#X connect 14 0 16 0;
#X connect 16 0 18 0;
#X connect 16 2 17 0;
#X connect 16 3 17 1;
#X connect 16 4 17 2;
#X connect 16 5 17 3;
#X connect 16 6 17 4;
#X connect 17 0 20 0;
#X connect 17 0 21 0;
#X connect 17 0 24 0;
#X connect 17 0 23 0;
#X connect 17 0 22 0;
#X connect 18 0 19 0;
#X connect 19 0 28 0;
#X connect 19 0 29 0;
#X connect 19 0 30 0;
#X connect 19 0 31 0;
#X connect 19 0 32 0;
#X connect 20 0 25 0;
#X connect 21 0 35 0;
#X connect 22 0 36 0;
#X connect 24 0 34 0;
#X connect 25 0 33 0;
#X connect 26 0 27 0;
#X connect 26 0 27 1;
#X connect 28 0 20 1;
#X connect 29 0 21 1;
#X connect 30 0 22 1;
#X connect 32 0 24 1;
#X connect 34 0 33 0;
#X connect 35 0 33 0;
#X connect 36 0 33 0;
